<svg width="308" height="217" viewBox="0 0 308 217" fill="none" xmlns="http://www.w3.org/2000/svg">
<g filter="url(#filter0_d)">
<path fill-rule="evenodd" clip-rule="evenodd" d="M173.811 191.389H275.69V68.3636L254.955 47.5669H173.811V191.389Z" fill="#F20036"/>
<path fill-rule="evenodd" clip-rule="evenodd" d="M254.984 68.8737L265.31 58.5015L275.689 68.8737V89.674L254.984 68.8737Z" fill="#E10029"/>
<path fill-rule="evenodd" clip-rule="evenodd" d="M275.689 68.8916H254.983V48.1084L275.689 68.8916Z" fill="#A8000A"/>
<path fill-rule="evenodd" clip-rule="evenodd" d="M252.725 99.7495L239.824 102.159L228.991 87.3684L233.346 77.4528L231.06 70.8239L217.614 71.7007L215.219 75.9185L222.513 87.9716L212.878 107.2L195.241 110.487L191.703 122.211L200.685 131.524L209.721 131.414L216.907 114.924L235.469 109.556L240.15 117.28L250.166 116.403L255.991 103.584L252.725 99.7495ZM221.044 76.3573L228.011 76.9597L225.344 82.2738L221.044 76.3573ZM204.55 123.853L201.447 119.416L207.653 117.608L204.55 123.853ZM221.044 105.665L226.161 93.9974L232.04 103.639L221.044 105.665ZM243.525 107.2L248.424 105.775L245.485 109.885L243.525 107.2Z" fill="white"/>
<path fill-rule="evenodd" clip-rule="evenodd" d="M207.769 143.409H287.669V175.385H207.769V143.409Z" fill="#A8000A"/>
<path fill-rule="evenodd" clip-rule="evenodd" d="M218.955 163.818V167.798H223.064V163.818H218.955ZM238.847 161.032C239.502 160.517 240.016 159.878 240.391 159.115C240.765 158.353 240.952 157.466 240.952 156.454V156.404C240.952 155.508 240.795 154.691 240.48 153.953C240.165 153.216 239.715 152.581 239.128 152.05C238.541 151.519 237.826 151.109 236.984 150.819C236.142 150.529 235.185 150.383 234.113 150.383H226.815V167.798H230.745V162.574H233.731C234.734 162.574 235.674 162.446 236.55 162.188C237.426 161.93 238.192 161.545 238.847 161.032ZM236.117 154.513C236.686 154.961 236.971 155.617 236.971 156.479V156.528C236.971 157.275 236.699 157.901 236.155 158.406C235.61 158.912 234.845 159.165 233.858 159.165H230.745V153.841H233.782C234.768 153.841 235.546 154.065 236.117 154.513ZM257.68 165.286C258.522 164.506 259.173 163.586 259.632 162.524C260.092 161.463 260.321 160.319 260.321 159.091V159.041C260.321 157.814 260.092 156.673 259.632 155.62C259.173 154.566 258.522 153.651 257.68 152.871C256.838 152.092 255.834 151.482 254.669 151.043C253.503 150.603 252.223 150.383 250.828 150.383H243.862V167.798H250.828C252.223 167.798 253.503 167.574 254.669 167.126C255.834 166.679 256.838 166.065 257.68 165.286ZM255.817 156.977C256.081 157.622 256.213 158.328 256.213 159.091V159.14C256.213 159.92 256.081 160.625 255.817 161.256C255.553 161.886 255.188 162.434 254.72 162.897C254.252 163.362 253.686 163.718 253.023 163.967C252.359 164.215 251.628 164.34 250.828 164.34H247.791V153.841H250.828C251.628 153.841 252.359 153.97 253.023 154.227C253.686 154.484 254.252 154.845 254.72 155.309C255.188 155.774 255.553 156.33 255.817 156.977ZM267.747 157.598V153.841H277.419V150.383H263.817V167.798H267.747V161.056H276.27V157.598H267.747Z" fill="white"/>
<path fill-rule="evenodd" clip-rule="evenodd" d="M147.013 48.5658V65.3499H87.9203V121.482H147.013V138.455L197.785 93.6054L147.013 48.5658Z" fill="#1B0B1C"/>
<path fill-rule="evenodd" clip-rule="evenodd" d="M167.743 94.1096L167.2 97.3055H164.13L163.587 100.502H160.517L161.061 97.3055H157.991L157.447 100.502H154.378L154.921 97.3055H151.852L152.395 94.1096H155.465L156.008 90.913H152.938L153.481 87.7179H156.551L157.094 84.5213H160.164L159.621 87.7179H162.691L163.234 84.5213H166.303L165.76 87.7179H168.83L168.287 90.913H165.217L164.674 94.1096H167.743ZM162.147 90.913H159.078L158.534 94.1096H161.604L162.147 90.913Z" fill="white"/>
<path fill-rule="evenodd" clip-rule="evenodd" d="M147.298 100.489C146.759 100.913 146.17 101.276 145.53 101.579C144.889 101.883 144.188 102.112 143.427 102.269C142.666 102.425 141.812 102.504 140.865 102.504C139.435 102.504 138.108 102.246 136.883 101.731C135.657 101.217 134.599 100.513 133.708 99.6208C132.817 98.729 132.12 97.6767 131.619 96.4621C131.118 95.2491 130.867 93.9535 130.867 92.5738V92.5188C130.867 91.1391 131.118 89.848 131.619 88.6431C132.12 87.439 132.817 86.3814 133.708 85.4718C134.599 84.5607 135.666 83.8445 136.91 83.3202C138.154 82.7958 139.528 82.534 141.032 82.534C141.941 82.534 142.773 82.6077 143.524 82.7549C144.276 82.9022 144.959 83.1045 145.571 83.3611C146.184 83.6191 146.75 83.9315 147.27 84.2989C147.79 84.6671 148.273 85.0709 148.718 85.5127L145.989 88.6298C145.228 87.9492 144.453 87.4152 143.664 87.03C142.874 86.644 141.988 86.4506 141.004 86.4506C140.187 86.4506 139.431 86.6068 138.735 86.9199C138.038 87.233 137.44 87.6644 136.938 88.2162C136.437 88.7673 136.047 89.4062 135.768 90.1329C135.49 90.8595 135.351 91.636 135.351 92.463V92.5188C135.351 93.3458 135.49 94.1275 135.768 94.8631C136.047 95.5986 136.432 96.242 136.924 96.7938C137.416 97.3449 138.01 97.7823 138.706 98.1043C139.403 98.4256 140.169 98.5863 141.004 98.5863C142.118 98.5863 143.06 98.3847 143.831 97.9801C144.601 97.5755 145.367 97.0244 146.128 96.3245L148.858 99.0556C148.356 99.5896 147.836 100.067 147.298 100.489Z" fill="white"/>
<path fill-rule="evenodd" clip-rule="evenodd" d="M20 159.428H121.879V36.4026L101.144 15.606H20V159.428Z" fill="#F49400"/>
<path fill-rule="evenodd" clip-rule="evenodd" d="M101.174 36.9135L111.499 26.5398L121.879 36.9135V57.7131L101.174 36.9135Z" fill="#F08400"/>
<path fill-rule="evenodd" clip-rule="evenodd" d="M121.878 36.9307H101.173V16.1482L121.878 36.9307Z" fill="#D23F00"/>
<path fill-rule="evenodd" clip-rule="evenodd" d="M36.9816 111.434H133.86V143.41H36.9816V111.434Z" fill="#D24000"/>
<path fill-rule="evenodd" clip-rule="evenodd" d="M93.1336 56.3788H71.9436H59.5597L60.3605 65.4116H71.9436H92.3331L89.9263 92.4921L71.9436 97.5004L71.9285 97.5057L53.9559 92.4921L52.7 78.3282H61.5063L62.1617 85.6779L71.9338 88.3293L71.9436 88.3241L81.7255 85.6727L82.7464 74.2339H71.9436H52.3398L49.9681 47.5669H71.9436H93.9141L93.1336 56.3788Z" fill="#FEFEFE"/>
<path fill-rule="evenodd" clip-rule="evenodd" d="M65.2185 136.473V129.256H58.1274V136.473H54.2819V118.495H58.1274V125.609H65.2185V118.495H69.064V136.473H65.2185ZM45.9824 136.473V132.364H50.0023V136.473H45.9824ZM81.0988 136.473V122.141H86.4174V118.495H71.9352V122.141H77.2536V136.473H81.0988ZM102.96 136.473V124.736L98.0405 132.415H97.9405L93.0717 124.813V136.473H89.2763V118.495H93.4211L98.0155 126.097L102.61 118.495H106.755V136.473H102.96ZM111.314 118.495V136.473H123.874V132.903H115.159V118.495H111.314Z" fill="white"/>
</g>
<defs>
<filter id="filter0_d" x="0" y="0.606018" width="307.669" height="215.783" filterUnits="userSpaceOnUse" color-interpolation-filters="sRGB">
<feFlood flood-opacity="0" result="BackgroundImageFix"/>
<feColorMatrix in="SourceAlpha" type="matrix" values="0 0 0 0 0 0 0 0 0 0 0 0 0 0 0 0 0 0 127 0"/>
<feOffset dy="5"/>
<feGaussianBlur stdDeviation="10"/>
<feColorMatrix type="matrix" values="0 0 0 0 0 0 0 0 0 0 0 0 0 0 0 0 0 0 0.15 0"/>
<feBlend mode="normal" in2="BackgroundImageFix" result="effect1_dropShadow"/>
<feBlend mode="normal" in="SourceGraphic" in2="effect1_dropShadow" result="shape"/>
</filter>
</defs>
</svg>
